<svg xmlns="http://www.w3.org/2000/svg" width="73.864" height="73.864" viewBox="0 0 73.864 73.864"><defs><style>.a{fill:#2dc4ea;}</style></defs><g transform="translate(0 70.786)"><path d="M72.325,490.667H1.539a1.539,1.539,0,1,0,0,3.078H72.325a1.539,1.539,0,1,0,0-3.078Z" transform="translate(0 -490.667)"/></g><g transform="translate(3.078 52.32)"><path d="M32.1,362.667H22.872a1.539,1.539,0,0,0-1.539,1.539v18.466a1.539,1.539,0,0,0,1.539,1.539H32.1a1.54,1.54,0,0,0,1.539-1.539V364.206A1.539,1.539,0,0,0,32.1,362.667Zm-1.539,18.466H24.411V365.745h6.155v15.388Z" transform="translate(-21.333 -362.667)"/></g><g transform="translate(21.544 36.932)"><path d="M160.1,256h-9.233a1.539,1.539,0,0,0-1.539,1.539v33.854a1.54,1.54,0,0,0,1.539,1.539H160.1a1.54,1.54,0,0,0,1.539-1.539V257.539A1.539,1.539,0,0,0,160.1,256Zm-1.539,33.854h-6.155V259.078h6.155Z" transform="translate(-149.333 -256)"/></g><g transform="translate(40.009 43.087)"><path d="M288.1,298.667h-9.233a1.539,1.539,0,0,0-1.539,1.539v27.7a1.539,1.539,0,0,0,1.539,1.539H288.1a1.539,1.539,0,0,0,1.539-1.539v-27.7A1.539,1.539,0,0,0,288.1,298.667Zm-1.539,27.7h-6.155V301.745h6.155Z" transform="translate(-277.333 -298.667)"/></g><g transform="translate(58.475 24.621)"><path d="M416.1,170.667h-9.233a1.539,1.539,0,0,0-1.539,1.539v46.165a1.539,1.539,0,0,0,1.539,1.539H416.1a1.539,1.539,0,0,0,1.539-1.539V172.206A1.539,1.539,0,0,0,416.1,170.667Zm-1.539,46.165h-6.155V173.745h6.155Z" transform="translate(-405.333 -170.667)"/></g><g transform="translate(3.078 27.699)"><path class="a" d="M27.488,192a6.155,6.155,0,1,0,6.155,6.155A6.162,6.162,0,0,0,27.488,192Zm0,9.233a3.078,3.078,0,1,1,3.078-3.078A3.081,3.081,0,0,1,27.488,201.233Z" transform="translate(-21.333 -192)"/></g><g transform="translate(21.544 12.311)"><path class="a" d="M155.488,85.333a6.155,6.155,0,1,0,6.155,6.155A6.162,6.162,0,0,0,155.488,85.333Zm0,9.233a3.078,3.078,0,1,1,3.078-3.078A3.081,3.081,0,0,1,155.488,94.566Z" transform="translate(-149.333 -85.333)"/></g><g transform="translate(40.009 18.466)"><path class="a" d="M283.488,128a6.155,6.155,0,1,0,6.155,6.155A6.162,6.162,0,0,0,283.488,128Zm0,9.233a3.078,3.078,0,1,1,3.078-3.078A3.081,3.081,0,0,1,283.488,137.233Z" transform="translate(-277.333 -128)"/></g><g transform="translate(58.475)"><path class="a" d="M411.488,0a6.155,6.155,0,1,0,6.155,6.155A6.162,6.162,0,0,0,411.488,0Zm0,9.233a3.078,3.078,0,1,1,3.078-3.078A3.081,3.081,0,0,1,411.488,9.233Z" transform="translate(-405.333)"/></g><g transform="translate(47.891 7.878)"><path class="a" d="M346.53,55.058a1.54,1.54,0,0,0-2.176,0L332.413,67a1.539,1.539,0,0,0,2.176,2.176L346.53,57.234A1.54,1.54,0,0,0,346.53,55.058Z" transform="translate(-331.963 -54.608)"/></g><g transform="translate(30.6 18.189)"><path class="a" d="M223.952,128.959l-9.885-2.819a1.539,1.539,0,0,0-.843,2.961l9.885,2.819a1.539,1.539,0,0,0,.843-2.961Z" transform="translate(-212.108 -126.078)"/></g><g transform="translate(10.955 19.804)"><path class="a" d="M90.278,137.853a1.54,1.54,0,0,0-2.161-.246l-11.6,9.251a1.539,1.539,0,0,0,.96,2.742,1.553,1.553,0,0,0,.957-.332l11.6-9.251A1.538,1.538,0,0,0,90.278,137.853Z" transform="translate(-75.935 -137.273)"/></g></svg>