<svg xmlns="http://www.w3.org/2000/svg" width="81.921" height="81.906" viewBox="0 0 81.921 81.906"><defs><style>.a{fill:#2dc4ea;}.b{fill:#3ae7ab;}</style></defs><path class="a" d="M39.645,135.2h3.411a1.2,1.2,0,0,0,0-2.4H39.645a1.2,1.2,0,1,0,0,2.4Zm0,0" transform="translate(-32.294 -111.552)"/><path class="a" d="M105.657,132.8H84.843a1.2,1.2,0,0,0,0,2.4h20.813a1.2,1.2,0,1,0,0-2.4Zm0,0" transform="translate(-70.261 -111.552)"/><path class="b" d="M155.205,170.785h-7.611a1.2,1.2,0,1,0,0,2.4h7.611a1.2,1.2,0,0,0,0-2.4Zm0,0" transform="translate(-122.971 -143.459)"/><path class="b" d="M110.259,170.785h-2.373a1.2,1.2,0,1,0,0,2.4h2.373a1.2,1.2,0,1,0,0-2.4Zm0,0" transform="translate(-89.617 -143.459)"/><path class="b" d="M46.745,170.785h-7.1a1.2,1.2,0,1,0,0,2.4h7.1a1.2,1.2,0,1,0,0-2.4Zm0,0" transform="translate(-32.294 -143.459)"/><path d="M33.273,32.281a3.518,3.518,0,1,0,3.518-3.519A3.522,3.522,0,0,0,33.273,32.281Zm4.639,0a1.121,1.121,0,1,1-1.121-1.121A1.122,1.122,0,0,1,37.912,32.281Zm0,0" transform="translate(-27.95 -24.16)"/><path d="M89.258,32.281a3.518,3.518,0,1,0,3.519-3.519A3.523,3.523,0,0,0,89.258,32.281Zm4.639,0a1.121,1.121,0,1,1-1.121-1.121A1.122,1.122,0,0,1,93.9,32.281Zm0,0" transform="translate(-74.976 -24.16)"/><path d="M145.246,32.281a3.518,3.518,0,1,0,3.518-3.519A3.522,3.522,0,0,0,145.246,32.281Zm4.639,0a1.121,1.121,0,1,1-1.121-1.121A1.122,1.122,0,0,1,149.885,32.281Zm0,0" transform="translate(-122.006 -24.16)"/><path d="M410.16,480.129h4a1.2,1.2,0,0,0,0-2.4h-4a1.2,1.2,0,1,0,0,2.4Zm0,0" transform="translate(-343.526 -401.292)"/><path d="M400.739,233.852h-1.38a1.2,1.2,0,0,0,0,2.4h1.38a1.2,1.2,0,1,0,0-2.4Zm0,0" transform="translate(-334.454 -196.435)"/><path d="M431.739,233.852h-2.712a1.2,1.2,0,0,0,0,2.4h2.712a1.2,1.2,0,0,0,0-2.4Zm0,0" transform="translate(-359.375 -196.435)"/><path d="M81.83,5.277A5.283,5.283,0,0,0,76.554,0H66.325a1.2,1.2,0,0,0,0,2.4H76.554a2.882,2.882,0,0,1,2.879,2.879v8.634H2.4V5.277A2.882,2.882,0,0,1,5.277,2.4H58.865a1.2,1.2,0,0,0,0-2.4H5.277A5.283,5.283,0,0,0,0,5.277V63.288a5.283,5.283,0,0,0,5.277,5.277H28.606v4.3h-3.62a4.385,4.385,0,0,0-4.379,4.379v2.59a2,2,0,0,0,2,2l55.566.073a3.754,3.754,0,0,0,3.75-3.75V74.363ZM5.277,66.167A2.882,2.882,0,0,1,2.4,63.288V58.741h52.95v7.426Zm47.947,2.4h2.124v4.3H53.224Zm-2.4,0v4.3H31v-4.3ZM23,79.435V77.244a1.984,1.984,0,0,1,1.982-1.981H55.348v2.893a3.725,3.725,0,0,0,.225,1.279Zm56.519-1.279a1.353,1.353,0,0,1-1.352,1.352H59.1a1.353,1.353,0,0,1-1.352-1.352V75.562H79.523Zm0-4.993H57.747V52.25a1.2,1.2,0,0,0-2.4,0v4.093H2.4V16.309H79.432V34.656a3.733,3.733,0,0,0-1.261-.219H59.1a3.755,3.755,0,0,0-3.75,3.75v6.762a1.2,1.2,0,0,0,2.4,0V43.18H79.523Zm0-32.381H57.747v-2.6A1.354,1.354,0,0,1,59.1,36.836H78.171a1.354,1.354,0,0,1,1.353,1.352v2.6Zm0,0"/><path class="a" d="M369.734,294.2h4.42a1.2,1.2,0,0,0,0-2.4h-4.42a1.2,1.2,0,0,0,0,2.4Zm0,0" transform="translate(-309.569 -245.109)"/><path class="a" d="M418.824,294.2h1.886a1.2,1.2,0,0,0,0-2.4h-1.886a1.2,1.2,0,0,0,0,2.4Zm0,0" transform="translate(-350.804 -245.109)"/><path class="a" d="M450.308,294.2h4.047a1.2,1.2,0,1,0,0-2.4h-4.047a1.2,1.2,0,0,0,0,2.4Zm0,0" transform="translate(-377.251 -245.109)"/><path class="b" d="M369.734,327.89H371.7a1.2,1.2,0,1,0,0-2.4h-1.967a1.2,1.2,0,0,0,0,2.4Zm0,0" transform="translate(-309.569 -273.413)"/><path class="b" d="M409.531,326.691a1.2,1.2,0,0,0-1.2-1.2H402.7a1.2,1.2,0,0,0,0,2.4h5.629A1.2,1.2,0,0,0,409.531,326.691Zm0,0" transform="translate(-337.262 -273.413)"/><path class="a" d="M463.93,325.492h-2.223a1.2,1.2,0,0,0,0,2.4h2.223a1.2,1.2,0,1,0,0-2.4Zm0,0" transform="translate(-386.825 -273.413)"/><path class="a" d="M369.734,358.89h3.934a1.2,1.2,0,0,0,0-2.4h-3.934a1.2,1.2,0,0,0,0,2.4Zm0,0" transform="translate(-309.569 -299.453)"/><path class="b" d="M414.84,358.89h4.981a1.2,1.2,0,0,0,0-2.4H414.84a1.2,1.2,0,1,0,0,2.4Zm0,0" transform="translate(-347.457 -299.453)"/><path class="b" d="M467.569,356.492h-1.53a1.2,1.2,0,0,0,0,2.4h1.53a1.2,1.2,0,1,0,0-2.4Zm0,0" transform="translate(-390.464 -299.453)"/><path class="a" d="M369.734,392.586h6.018a1.2,1.2,0,1,0,0-2.4h-6.018a1.2,1.2,0,0,0,0,2.4Zm0,0" transform="translate(-309.569 -327.757)"/><path class="a" d="M430.24,390.188h-1.631a1.2,1.2,0,0,0,0,2.4h1.631a1.2,1.2,0,0,0,0-2.4Zm0,0" transform="translate(-359.023 -327.757)"/><path class="a" d="M460.685,390.188h-2.841a1.2,1.2,0,0,0,0,2.4h2.841a1.2,1.2,0,1,0,0-2.4Zm0,0" transform="translate(-383.58 -327.757)"/><path class="a" d="M39.645,135.2h3.411a1.2,1.2,0,0,0,0-2.4H39.645a1.2,1.2,0,1,0,0,2.4Zm0,0" transform="translate(-32.294 -99.552)"/><path class="b" d="M105.657,132.8H84.843a1.2,1.2,0,0,0,0,2.4h20.813a1.2,1.2,0,1,0,0-2.4Zm0,0" transform="translate(-70.261 -99.552)"/></svg>