<svg xmlns="http://www.w3.org/2000/svg" width="75.697" height="75.721" viewBox="0 0 75.697 75.721"><defs><style>.a{fill:#3ae7ab;}.b{fill:#2dc4ea;}</style></defs><g transform="translate(-0.501)"><path class="a" d="M287.9,151.957a1.479,1.479,0,1,0,1.478,1.479A1.479,1.479,0,0,0,287.9,151.957Zm0,0" transform="translate(-243.635 -129.484)"/><path d="M221.249,332.718a1.479,1.479,0,1,0-2.092,0A1.481,1.481,0,0,0,221.249,332.718Zm0,0" transform="translate(-185.95 -281.36)"/><path d="M17.531,256.2a1.478,1.478,0,0,0,2.087.012l7.168-7.062a4.468,4.468,0,0,0,1.053-4.588l1.542-1.487a4.409,4.409,0,0,1,3.079-1.244H52.114a13.238,13.238,0,0,0,9.281-3.771c.1-.1-.78.941,13.409-16.019a5.914,5.914,0,0,0-9-7.676l-8.724,8.967a5.942,5.942,0,0,0-4.6-2.2H36a19.075,19.075,0,0,0-7.4-1.478c-7.117,0-13.335,3.286-16.673,9.454a4.416,4.416,0,0,0-3.954,1.225L.932,237.389a1.478,1.478,0,0,0,0,2.085Zm11.061-33.59a16.14,16.14,0,0,1,6.509,1.355,1.476,1.476,0,0,0,.593.124h16.79a2.957,2.957,0,1,1,0,5.914H40.421a1.478,1.478,0,1,0,0,2.957H52.484a5.9,5.9,0,0,0,5.862-6.687c8.44-8.675,9.63-9.894,9.681-9.955a2.958,2.958,0,1,1,4.515,3.821L59.281,235.995a10.3,10.3,0,0,1-7.166,2.882H32.459a7.351,7.351,0,0,0-5.132,2.073l-1.257,1.213L14.487,230.58C17.194,225.5,22.274,222.613,28.592,222.613Zm-18.534,9.812a1.475,1.475,0,0,1,1.831-.208c.226.138,12.872,12.815,12.95,12.919a1.484,1.484,0,0,1-.136,1.918l-6.111,6.02L4.065,238.436Zm0,0" transform="translate(0 -180.919)"/><path class="b" d="M130.9,31.345h35.484a4.44,4.44,0,0,0,4.436-4.436V4.436A4.44,4.44,0,0,0,166.385,0H130.9a4.44,4.44,0,0,0-4.436,4.436V26.909A4.44,4.44,0,0,0,130.9,31.345Zm36.963-19.517H129.422V8.871h38.441Zm-1.478,16.56H130.9a1.481,1.481,0,0,1-1.478-1.479V14.785h38.441V26.909A1.481,1.481,0,0,1,166.385,28.388ZM130.9,2.957h35.484a1.48,1.48,0,0,1,1.478,1.478V5.914H129.422V4.436A1.48,1.48,0,0,1,130.9,2.957Zm0,0" transform="translate(-107.335)"/><path class="a" d="M333.8,151.957h-5.914a1.479,1.479,0,0,0,0,2.957H333.8a1.479,1.479,0,1,0,0-2.957Zm0,0" transform="translate(-277.71 -129.484)"/></g></svg>