<svg xmlns="http://www.w3.org/2000/svg" width="81.111" height="73" viewBox="0 0 81.111 73"><defs><style>.a{fill:#2dc4ea;}</style></defs><g transform="translate(-2 -8)"><path d="M76.352,8H16.87a6.767,6.767,0,0,0-6.759,6.759V29.738A9.463,9.463,0,0,0,2,39.093V54.677a4.085,4.085,0,0,0,.427,1.814l2.141,4.264a1.388,1.388,0,0,1,.135.606V79.648A1.352,1.352,0,0,0,6.056,81H19.574a1.352,1.352,0,0,0,1.352-1.352V68.683a9.5,9.5,0,0,1,1-4.233l2.058-4.115a9.336,9.336,0,0,0,.414-.965H49.315v5.407a1.352,1.352,0,0,0,.314.865l6.446,7.735v6.27A1.352,1.352,0,0,0,57.426,81H73.648A1.352,1.352,0,0,0,75,79.648v-6.44l3.92-7.826a1.352,1.352,0,0,0,.135-.6V58.8a6.738,6.738,0,0,0,4.056-6.189V14.759A6.767,6.767,0,0,0,76.352,8ZM12.815,14.759A4.056,4.056,0,0,1,16.87,10.7H23.63V38.783a4,4,0,0,0-3.73,2.985l-1.559,5.813a1.336,1.336,0,0,1-1.29.99h-.016a1.325,1.325,0,0,1-1.129-.649l-3.092-5.148Zm9.463,40.272V56.1a6.808,6.808,0,0,1-.714,3.024l-2.058,4.115a12.234,12.234,0,0,0-1.284,5.441V78.3H7.407V61.36a4.085,4.085,0,0,0-.427-1.814L4.846,55.282a1.388,1.388,0,0,1-.142-.606V39.093a6.77,6.77,0,0,1,5.407-6.624v10.68a1.352,1.352,0,0,0,.193.7l3.284,5.472a4.014,4.014,0,0,0,3.417,1.962,4.107,4.107,0,0,0,3.947-2.993l1.559-5.813a1.337,1.337,0,0,1,.63-.821,1.351,1.351,0,0,1,1.98,1.521L22.6,52.587a9.433,9.433,0,0,0-.323,2.444Zm54.074,9.428-3.92,7.826a1.352,1.352,0,0,0-.135.6V78.3H58.778V72.889a1.352,1.352,0,0,0-.314-.865l-6.446-7.735V51.259a1.352,1.352,0,1,1,2.7,0V59.37h2.7V36.389a1.352,1.352,0,0,1,2.7,0V53.963h2.7V48.556a1.352,1.352,0,1,1,2.7,0v5.407h2.7V49.907a1.352,1.352,0,0,1,2.7,0v4.056h2.7v-2.7a1.352,1.352,0,1,1,2.7,0ZM43.894,28.47l.22-1.544h10.4l.22,1.544,2.677-.384-.166-1.16h2.64l-.9,5.428c-.07,0-.135-.02-.205-.02a4.056,4.056,0,0,0-4.056,4.056v4.056H41L38.743,26.926h2.64l-.166,1.16ZM80.407,52.611a4.045,4.045,0,0,1-1.352,3.019V51.259A4.056,4.056,0,0,0,75,47.2a4.011,4.011,0,0,0-1.989.541A4,4,0,0,0,67.6,46.393a3.974,3.974,0,0,0-4.771-1.644v-8.36a4.034,4.034,0,0,0-1.29-2.95l1.081-6.513h1.56v-2.7H56.86l-.8-5.6-2.677.384.745,5.215H44.5l.745-5.215-2.677-.384-.8,5.6H34.444v2.7H36l2.516,15.093a1.352,1.352,0,0,0,1.333,1.129h14.87v4.3A4.01,4.01,0,0,0,53.37,47.2a4.056,4.056,0,0,0-4.056,4.056v5.407H26.333V49.1l1.4-5.228a4.035,4.035,0,0,0-1.4-4.227V10.7H76.352a4.056,4.056,0,0,1,4.056,4.056Z"/><path d="M15.056,32.111A4.056,4.056,0,1,0,11,28.056,4.056,4.056,0,0,0,15.056,32.111Zm0-5.407A1.352,1.352,0,1,1,13.7,28.056,1.352,1.352,0,0,1,15.056,26.7Z" transform="translate(3.167 5.63)"/><rect class="a" width="3" height="8" transform="translate(45 30)"/><rect class="a" width="2" height="8" transform="translate(51 30)"/></g></svg>