<svg xmlns="http://www.w3.org/2000/svg" width="66.883" height="85.383" viewBox="0 0 66.883 85.383"><defs><style>.a{fill:#2dc4ea;}.b{fill:#3ae7ab;}</style></defs><g transform="translate(-18.5)"><g transform="translate(27.985 7.085)"><g transform="translate(0 0)"><rect width="28" height="2" transform="translate(0.015 0.298)"/></g></g><g transform="translate(18.5 28.461)"><path d="M155.941,184.9a4.987,4.987,0,0,0-4.981-4.981h-2.846V160h-2.846v19.923h-3.558a4.973,4.973,0,0,0-3.475,8.538,4.921,4.921,0,0,0-.748,6.167,4.977,4.977,0,0,0-2.892,4.506,4.923,4.923,0,0,0,.5,2.135H123.923a12.8,12.8,0,0,0-5.506-10.517,8.553,8.553,0,0,0,5.506-7.982,1.423,1.423,0,0,0-1.423-1.423H111.115V145.627h-2.846v35.719A4.274,4.274,0,0,0,104,185.615v31.307h2.846V185.615a1.425,1.425,0,0,1,1.423-1.423H120.9a5.7,5.7,0,0,1-5.511,4.269h-4.269a1.423,1.423,0,0,0,0,2.846,9.973,9.973,0,0,1,9.961,9.961v1.423a1.423,1.423,0,0,0,1.423,1.423h8.326a4.923,4.923,0,0,0-.5,2.135,4.987,4.987,0,0,0,4.981,4.981v5.692h2.846V211.23h6.4a4.987,4.987,0,0,0,4.981-4.981,4.92,4.92,0,0,0-.511-2.155,4.943,4.943,0,0,0,4.022-7.57,4.956,4.956,0,0,0,1.386-8.064A4.961,4.961,0,0,0,155.941,184.9Zm-11.384,23.48h-9.25a2.135,2.135,0,1,1,0-4.269h9.25a2.135,2.135,0,1,1,0,4.269Zm4.269-7.115h-9.25a2.135,2.135,0,1,1,0-4.269h9.25a2.135,2.135,0,0,1,0,4.269Zm2.135-7.115h-9.25a2.135,2.135,0,1,1,0-4.269h9.25a2.135,2.135,0,1,1,0,4.269Zm0-7.115h-9.25a2.135,2.135,0,1,1,0-4.269h9.25a2.135,2.135,0,1,1,0,4.269Z" transform="translate(-104 -160)"/></g><g transform="translate(38.422 21.346)"><path class="a" d="M224.538,122.846V120h-4.269a1.423,1.423,0,0,0-1.423,1.423v4.269H216v2.846h2.846v5.692h2.846v-5.692h2.846v-2.846h-2.846v-2.846Z" transform="translate(-216 -120)"/></g><g transform="translate(29.884 15.654)"><path d="M189.346,88H172.269A4.274,4.274,0,0,0,168,92.269v17.077a4.274,4.274,0,0,0,4.269,4.269h17.077a4.274,4.274,0,0,0,4.269-4.269V92.269A4.274,4.274,0,0,0,189.346,88Zm1.423,21.346a1.424,1.424,0,0,1-1.423,1.423H172.269a1.424,1.424,0,0,1-1.423-1.423V92.269a1.424,1.424,0,0,1,1.423-1.423h17.077a1.424,1.424,0,0,1,1.423,1.423Z" transform="translate(-168 -88)"/></g><g transform="translate(59.768)"><path class="b" d="M357.346,0H340.269A4.274,4.274,0,0,0,336,4.269V21.346a4.274,4.274,0,0,0,4.269,4.269h17.077a4.274,4.274,0,0,0,4.269-4.269V4.269A4.274,4.274,0,0,0,357.346,0Zm1.423,21.346a1.424,1.424,0,0,1-1.423,1.423H340.269a1.424,1.424,0,0,1-1.423-1.423V14.231h2.99a7.115,7.115,0,0,0,13.943,0h2.99Zm-14.23-8.538a4.269,4.269,0,1,1,4.269,4.269A4.274,4.274,0,0,1,344.538,12.807Zm14.23-1.423h-2.99a7.115,7.115,0,0,0-13.943,0h-2.99V4.269a1.424,1.424,0,0,1,1.423-1.423h17.077a1.424,1.424,0,0,1,1.423,1.423Z" transform="translate(-336)"/></g><g transform="translate(41.034 58.097)"><g transform="translate(0 0)"><rect width="4" height="3" transform="translate(-0.034 0.286)"/></g></g></g></svg>